<mxfile host="65bd71144e">
    <diagram id="YQEeyEsAXImCTdxHAv1M" name="第 1 页">
        <mxGraphModel dx="896" dy="605" grid="0" gridSize="10" guides="1" tooltips="1" connect="1" arrows="1" fold="1" page="1" pageScale="1" pageWidth="2339" pageHeight="3300" background="#ffffff" math="0" shadow="0">
            <root>
                <mxCell id="0"/>
                <mxCell id="1" parent="0"/>
                <mxCell id="67" value="" style="rounded=1;whiteSpace=wrap;html=1;fontSize=16;fillColor=#E0D3C3;container=0;" parent="1" vertex="1">
                    <mxGeometry x="393" y="198" width="191" height="501" as="geometry"/>
                </mxCell>
                <mxCell id="80" value="key-value 1" style="rounded=1;whiteSpace=wrap;html=1;fontSize=16;fillColor=#D8B29C;fontColor=default;labelBackgroundColor=none;container=0;" parent="1" vertex="1">
                    <mxGeometry x="421.5" y="221.5" width="134" height="59" as="geometry"/>
                </mxCell>
                <mxCell id="83" value="key-value 2" style="rounded=1;whiteSpace=wrap;html=1;fontSize=16;fillColor=#D8B29C;fontColor=default;labelBackgroundColor=none;container=0;" parent="1" vertex="1">
                    <mxGeometry x="424" y="300.5" width="134" height="59" as="geometry"/>
                </mxCell>
                <mxCell id="85" value="restart point 1" style="rounded=1;whiteSpace=wrap;html=1;fontSize=16;fillColor=#8D91AA;fontColor=default;labelBackgroundColor=none;container=0;" parent="1" vertex="1">
                    <mxGeometry x="424" y="458.5" width="134" height="59" as="geometry"/>
                </mxCell>
                <mxCell id="86" value="num restarts" style="rounded=1;whiteSpace=wrap;html=1;fontSize=16;fillColor=#ACD4D6;fontColor=default;labelBackgroundColor=none;container=0;" parent="1" vertex="1">
                    <mxGeometry x="424" y="616.5" width="134" height="59" as="geometry"/>
                </mxCell>
                <mxCell id="89" value="key-value 3" style="rounded=1;whiteSpace=wrap;html=1;fontSize=16;fillColor=#D8B29C;fontColor=default;labelBackgroundColor=none;container=0;" vertex="1" parent="1">
                    <mxGeometry x="424" y="379.5" width="134" height="59" as="geometry"/>
                </mxCell>
                <mxCell id="90" value="restart point 2" style="rounded=1;whiteSpace=wrap;html=1;fontSize=16;fillColor=#8D91AA;fontColor=default;labelBackgroundColor=none;container=0;" vertex="1" parent="1">
                    <mxGeometry x="424" y="537.5" width="134" height="59" as="geometry"/>
                </mxCell>
                <mxCell id="93" value="" style="rounded=1;whiteSpace=wrap;html=1;fontSize=16;fillColor=#E0D3C3;container=0;" vertex="1" parent="1">
                    <mxGeometry x="683" y="193" width="755" height="113" as="geometry"/>
                </mxCell>
                <mxCell id="94" value="key-value 1" style="rounded=1;whiteSpace=wrap;html=1;fontSize=16;fillColor=#D8B29C;fontColor=default;labelBackgroundColor=none;container=0;" vertex="1" parent="1">
                    <mxGeometry x="695" y="219" width="105" height="59" as="geometry"/>
                </mxCell>
                <mxCell id="95" value="key-value 2" style="rounded=1;whiteSpace=wrap;html=1;fontSize=16;fillColor=#D8B29C;fontColor=default;labelBackgroundColor=none;container=0;" vertex="1" parent="1">
                    <mxGeometry x="820" y="220" width="105" height="59" as="geometry"/>
                </mxCell>
                <mxCell id="96" value="key-value 3" style="rounded=1;whiteSpace=wrap;html=1;fontSize=16;fillColor=#D8B29C;fontColor=default;labelBackgroundColor=none;container=0;" vertex="1" parent="1">
                    <mxGeometry x="945" y="220" width="105" height="59" as="geometry"/>
                </mxCell>
                <mxCell id="97" value="restart point 1" style="rounded=1;whiteSpace=wrap;html=1;fontSize=16;fillColor=#8D91AA;fontColor=default;labelBackgroundColor=none;container=0;" vertex="1" parent="1">
                    <mxGeometry x="1070" y="220" width="105" height="59" as="geometry"/>
                </mxCell>
                <mxCell id="98" value="restart point 2" style="rounded=1;whiteSpace=wrap;html=1;fontSize=16;fillColor=#8D91AA;fontColor=default;labelBackgroundColor=none;container=0;" vertex="1" parent="1">
                    <mxGeometry x="1195" y="219" width="105" height="59" as="geometry"/>
                </mxCell>
                <mxCell id="99" value="num restarts" style="rounded=1;whiteSpace=wrap;html=1;fontSize=16;fillColor=#ACD4D6;fontColor=default;labelBackgroundColor=none;container=0;" vertex="1" parent="1">
                    <mxGeometry x="1320" y="220" width="105" height="59" as="geometry"/>
                </mxCell>
            </root>
        </mxGraphModel>
    </diagram>
</mxfile>